<?xml version="1.0" encoding="UTF-8"?>
<!DOCTYPE svg PUBLIC "-//W3C//DTD SVG 1.1//EN" "http://www.w3.org/Graphics/SVG/1.1/DTD/svg11.dtd">
<!-- Creator: CorelDRAW 2019 (64-Bit) -->
<svg xmlns="http://www.w3.org/2000/svg" xml:space="preserve" width="100.562mm" height="16.3387mm" version="1.1" shape-rendering="geometricPrecision" text-rendering="geometricPrecision" image-rendering="optimizeQuality" fill-rule="evenodd" clip-rule="evenodd"
viewBox="0 0 10093.03 1639.86"
 xmlns:xlink="http://www.w3.org/1999/xlink"
 xmlns:xodm="http://www.corel.com/coreldraw/odm/2003">
 <g id="TEXTS">
  <metadata id="CorelCorpID_0Corel-Layer"/>
  <g id="_2141122635184">
   <path fill="#1D3244" fill-rule="nonzero" d="M589.45 1063.3c-75.28,0 -145.44,-13.68 -210.46,-41.06 -65.02,-27.38 -121.98,-65.27 -170.86,-113.67 -48.89,-48.4 -86.78,-105.1 -113.67,-170.13 -26.89,-65.02 -40.33,-134.68 -40.33,-208.99 0,-74.31 13.44,-143.48 40.33,-207.53 26.89,-64.04 64.54,-120.26 112.93,-168.66 48.4,-48.41 104.86,-86.04 169.4,-112.93 64.53,-26.89 134.44,-40.34 209.73,-40.34 75.28,0 145.19,13.45 209.73,40.34 64.54,26.89 121.24,64.53 170.13,112.93 48.89,48.4 86.78,104.86 113.67,169.39 26.89,64.54 40.33,133.96 40.33,208.26 0,74.31 -13.44,143.73 -40.33,208.26 -26.89,64.54 -64.54,121 -112.93,169.4 -48.4,48.4 -104.86,86.29 -169.4,113.67 -64.53,27.38 -133.95,41.06 -208.26,41.06zm464.92 60.14l-472.25 -472.25 120.27 -121.73 473.72 473.72 -121.73 120.27zm-467.85 -246.4c65.51,0 122.95,-14.66 172.33,-44 49.37,-29.33 87.99,-69.91 115.86,-121.72 27.86,-51.82 41.79,-112.44 41.79,-181.86 0,-50.85 -8.06,-97.29 -24.2,-139.33 -16.13,-42.04 -38.86,-78.47 -68.2,-109.26 -29.33,-30.8 -64.04,-54.51 -104.13,-71.14 -40.09,-16.62 -84.57,-24.93 -133.46,-24.93 -64.54,0 -121.48,14.42 -170.86,43.27 -49.38,28.85 -88,69.17 -115.86,121 -27.86,51.82 -41.8,111.95 -41.8,180.39 0,51.82 8.07,99.24 24.2,142.26 16.14,43.03 38.62,79.69 67.47,110 28.85,30.31 63.55,53.78 104.13,70.4 40.58,16.62 84.82,24.93 132.73,24.93z"/>
   <path id="1" fill="#1D3244" fill-rule="nonzero" d="M1714.35 1061.84c-81.15,0 -153.26,-17.85 -216.32,-53.53 -63.07,-35.69 -112.69,-84.82 -148.86,-147.4 -36.18,-62.58 -54.27,-133.47 -54.27,-212.67l0 -632.11 199.46 0 0 637.98c0,45.96 9.53,85.55 28.6,118.79 19.06,33.24 45.47,58.92 79.2,77 33.73,18.09 71.13,27.13 112.19,27.13 42.04,0 79.2,-9.04 111.47,-27.13 32.27,-18.09 57.93,-43.76 77,-77 19.06,-33.24 28.59,-72.35 28.59,-117.33l0 -639.44 200.93 0 0 633.58c0,79.19 -18.1,149.84 -54.27,211.92 -36.18,62.09 -85.31,110.98 -147.4,146.67 -62.09,35.68 -134.2,53.53 -216.33,53.53z"/>
   <path id="2" fill="#1D3244" fill-rule="nonzero" d="M2475.53 615.99l0 -155.47 239.06 0c48.88,0 86.77,-12.47 113.66,-37.4 26.89,-24.93 40.34,-59.4 40.34,-103.4 0,-40.09 -13.45,-73.58 -40.34,-100.47 -26.89,-26.89 -64.78,-40.33 -113.66,-40.33l-239.06 0 0 -162.79 256.66 0c66.48,0 124.91,12.96 175.26,38.86 50.35,25.91 89.47,61.35 117.33,106.33 27.87,44.98 41.8,96.8 41.8,155.47 0,60.62 -13.93,113.17 -41.8,157.66 -27.86,44.49 -67.22,79.2 -118.06,104.13 -50.85,24.94 -109.99,37.41 -177.46,37.41l-253.73 0zm-146.67 431.18l0 -1031.03 199.46 0 0 1031.03 -199.46 0zm563.19 0l-340.26 -445.86 183.33 -57.2 398.93 503.06 -241.99 0z"/>
   <path id="3" fill="#1D3244" fill-rule="nonzero" d="M3393.64 1047.17l0 -162.79 268.39 0c47.91,0 85.31,-14.66 112.2,-44 26.89,-29.33 40.33,-64.04 40.33,-104.13 0,-27.38 -5.86,-52.31 -17.59,-74.79 -11.73,-22.49 -29.09,-40.34 -52.07,-53.54 -22.97,-13.2 -50.59,-19.8 -82.86,-19.8l-268.39 0 0 -161.33 246.39 0c41.07,0 74.07,-10.27 99,-30.79 24.93,-20.53 37.4,-51.34 37.4,-92.4 0,-42.04 -12.47,-73.34 -37.4,-93.87 -24.93,-20.52 -57.93,-30.79 -99,-30.79l-246.39 0 0 -162.79 269.86 0c68.44,0 125.89,12.47 172.33,37.4 46.44,24.93 81.4,57.69 104.86,98.26 23.47,40.58 35.2,84.82 35.2,132.73 0,58.66 -17.85,109.26 -53.53,151.79 -35.69,42.54 -87.76,74.07 -156.2,94.6l8.8 -64.53c76.26,21.51 135.17,56.95 176.73,106.33 41.55,49.38 62.34,108.78 62.34,178.19 0,54.76 -13.45,104.38 -40.34,148.86 -26.89,44.49 -66,80.18 -117.33,107.07 -51.34,26.89 -113.67,40.33 -186.99,40.33l-275.73 0zm-146.67 0l0 -1031.03 197.99 0 0 1031.03 -197.99 0z"/>
   <path id="4" fill="#1D3244" fill-rule="nonzero" d="M4096.16 1047.17l415.05 -1031.03 162.8 0 413.58 1031.03 -212.66 0 -319.73 -846.24 73.34 0 -324.12 846.24 -208.26 0zm219.99 -192.13l0 -167.19 554.38 0 0 167.19 -554.38 0z"/>
   <path id="5" fill="#1D3244" fill-rule="nonzero" d="M5209.32 1047.17l0 -1031.03 139.33 0 60.13 199.46 0 831.58 -199.46 0zm712.78 0l-611.58 -791.98 38.13 -239.05 611.58 791.97 -38.13 239.06zm0 0l-57.2 -193.6 0 -837.44 200.92 0 0 1031.03 -143.72 0z"/>
   <path id="6" fill="#1D3244" fill-rule="nonzero" d="M6898.87 1047.17l-447.32 -538.26 435.59 -492.78 249.33 0 -485.45 535.31 0 -92.4 501.58 588.12 -253.73 0zm-623.32 0l0 -1031.03 199.46 0 0 1031.03 -199.46 0z"/>
   <path id="7" fill="#1D3244" fill-rule="nonzero" d="M7643.91 1061.84c-81.15,0 -153.26,-17.85 -216.32,-53.53 -63.07,-35.69 -112.69,-84.82 -148.86,-147.4 -36.18,-62.58 -54.27,-133.47 -54.27,-212.67l0 -632.11 199.46 0 0 637.98c0,45.96 9.53,85.55 28.6,118.79 19.06,33.24 45.47,58.92 79.2,77 33.73,18.09 71.13,27.13 112.19,27.13 42.04,0 79.2,-9.04 111.47,-27.13 32.27,-18.09 57.93,-43.76 77,-77 19.06,-33.24 28.59,-72.35 28.59,-117.33l0 -639.44 200.93 0 0 633.58c0,79.19 -18.1,149.84 -54.27,211.92 -36.18,62.09 -85.31,110.98 -147.4,146.67 -62.09,35.68 -134.2,53.53 -216.33,53.53z"/>
   <path id="8" fill="#63961F" fill-rule="nonzero" d="M8369.89 1061.84c-35.2,0 -64.04,-11.73 -86.54,-35.2 -22.48,-23.47 -33.73,-52.31 -33.73,-86.53 0,-34.22 11.25,-63.07 33.73,-86.54 22.49,-23.47 51.34,-35.2 86.54,-35.2 34.21,0 62.58,11.73 85.06,35.2 22.49,23.47 33.73,52.31 33.73,86.54 0,34.21 -11.24,63.06 -33.73,86.53 -22.48,23.47 -50.85,35.2 -85.06,35.2z"/>
   <polygon id="9" fill="#63961F" fill-rule="nonzero" points="8691.08,1047.17 8691.08,16.14 8890.53,16.14 8890.53,1047.17 "/>
   <path id="10" fill="#63961F" fill-rule="nonzero" d="M9238.13 1047.17l0 -177.46 262.53 0c66.48,0 124.66,-13.94 174.53,-41.8 49.86,-27.86 88.72,-67.22 116.6,-118.06 27.86,-50.85 41.8,-110.98 41.8,-180.4 0,-67.47 -14.18,-126.37 -42.54,-176.73 -28.35,-50.35 -67.47,-89.47 -117.33,-117.33 -49.87,-27.87 -107.55,-41.8 -173.06,-41.8l-266.92 0 0 -177.46 269.86 0c76.27,0 146.91,12.71 211.92,38.13 65.03,25.42 121.73,61.35 170.13,107.79 48.4,46.45 86.04,100.96 112.93,163.54 26.89,62.57 40.33,131.02 40.33,205.32 0,74.31 -13.44,143 -40.33,206.06 -26.89,63.07 -64.28,117.82 -112.2,164.26 -47.9,46.45 -104.37,82.38 -169.4,107.8 -65.02,25.42 -135.17,38.13 -210.46,38.13l-268.39 0zm-136.4 0l0 -1031.03 199.46 0 0 1031.03 -199.46 0z"/>
  </g>
  <path fill="#1D3244" fill-rule="nonzero" d="M468.07 1194.71l0 439.96 -62.94 0 0 -301.55c0,-4.89 0.2,-10.29 0.51,-16.09 0.3,-5.81 0.71,-11.61 1.32,-17.52l-141.46 261.22c-5.5,10.8 -13.95,16.2 -25.36,16.2l-10.09 0c-11.6,0 -20.05,-5.4 -25.35,-16.2l-143.59 -261.84c0.6,5.91 1.11,11.81 1.43,17.72 0.3,5.9 0.4,11.4 0.4,16.5l0 301.55 -62.94 0 0 -439.96 53.48 0c6.31,0 11.2,0.51 14.66,1.63 3.46,1.12 6.61,4.59 9.46,10.29l141.16 255.72c3.06,5.91 6.01,11.91 8.76,18.13 2.75,6.21 5.19,12.64 7.44,19.15 2.44,-6.51 5.09,-13.04 7.84,-19.45 2.75,-6.41 5.6,-12.53 8.65,-18.44l139.02 -255.11c2.85,-5.7 6.01,-9.16 9.47,-10.29 3.46,-1.11 8.35,-1.63 14.66,-1.63l53.47 0z"/>
  <path id="1" fill="#1D3244" fill-rule="nonzero" d="M746.09 1576.93c16.9,0 32.08,-2.85 45.42,-8.56 13.35,-5.7 24.65,-13.64 33.91,-23.83 9.27,-10.19 16.3,-22.51 21.19,-36.86 4.89,-14.36 7.34,-30.25 7.34,-47.76l0 -265.2 71.18 0 0 265.2c0,25.86 -4.07,49.8 -12.31,71.79 -8.25,22 -20.17,40.94 -35.65,56.94 -15.48,15.99 -34.21,28.51 -56.32,37.58 -22.1,9.06 -47.05,13.64 -74.75,13.64 -27.7,0 -52.55,-4.58 -74.65,-13.64 -22.1,-9.06 -40.94,-21.59 -56.42,-37.58 -15.49,-16 -27.3,-34.94 -35.55,-56.94 -8.24,-21.99 -12.43,-45.93 -12.43,-71.79l0 -265.2 71.5 0 0 264.89c0,17.52 2.44,33.41 7.33,47.76 4.89,14.36 11.91,26.69 21.09,36.98 9.16,10.28 20.46,18.33 33.8,24.03 13.35,5.71 28.41,8.56 45.33,8.56z"/>
  <path id="2" fill="#1D3244" fill-rule="nonzero" d="M1152.14 1405.52c16.29,0 30.55,-2.04 42.77,-6 12.22,-3.97 22.41,-9.47 30.56,-16.6 8.14,-7.14 14.25,-15.69 18.33,-25.56 4.07,-9.89 6.11,-20.78 6.11,-32.8 0,-24.03 -7.95,-42.36 -23.84,-54.99 -15.88,-12.63 -39.92,-18.94 -72.1,-18.94l-58.04 0 0 154.9 56.22 0zm207.15 229.15l-63.85 0c-12.64,0 -21.8,-4.89 -27.5,-14.66l-102.65 -148.18c-3.46,-5.09 -7.24,-8.76 -11.31,-11 -4.06,-2.24 -10.18,-3.36 -18.33,-3.36l-39.72 0 0 177.21 -71.5 0 0 -439.96 129.54 0c28.93,0 53.88,2.95 74.75,8.86 20.88,5.9 37.99,14.25 51.44,25.15 13.44,10.9 23.42,24.04 29.84,39.31 6.41,15.28 9.56,32.28 9.56,51.02 0,15.28 -2.24,29.54 -6.81,42.78 -4.59,13.24 -11.21,25.26 -19.86,36.05 -8.66,10.8 -19.35,20.16 -31.98,28.11 -12.63,7.94 -26.99,14.15 -43.08,18.64 8.75,5.29 16.29,12.73 22.6,22.3l118.85 167.73z"/>
  <path id="3" fill="#1D3244" fill-rule="nonzero" d="M1645.25 1469.69l-60.49 -160.71c-4.89,-12.43 -9.88,-28.21 -14.96,-47.35 -2.25,9.56 -4.69,18.33 -7.34,26.38 -2.65,8.04 -5.09,15.18 -7.34,21.28l-60.49 160.41 150.62 0zm135.35 164.98l-55.3 0c-6.31,0 -11.4,-1.63 -15.28,-4.79 -3.87,-3.15 -6.82,-7.03 -8.86,-11.71l-36.66 -97.15 -189.42 0 -36.66 97.15c-1.63,4.07 -4.49,7.85 -8.55,11.31 -4.07,3.46 -9.17,5.19 -15.29,5.19l-55.29 0 174.45 -439.96 72.41 0 174.46 439.96z"/>
  <polygon id="4" fill="#1D3244" fill-rule="nonzero" points="2196.11,1194.71 2196.11,1634.67 2124.62,1634.67 2124.62,1438.82 1903.72,1438.82 1903.72,1634.67 1831.92,1634.67 1831.92,1194.71 1903.72,1194.71 1903.72,1387.2 2124.62,1387.2 2124.62,1194.71 "/>
  <path id="5" fill="#1D3244" fill-rule="nonzero" d="M3192.44 1469.69l-60.49 -160.71c-4.89,-12.43 -9.88,-28.21 -14.96,-47.35 -2.25,9.56 -4.69,18.33 -7.34,26.38 -2.65,8.04 -5.09,15.18 -7.34,21.28l-60.49 160.41 150.62 0zm135.35 164.98l-55.3 0c-6.31,0 -11.4,-1.63 -15.28,-4.79 -3.87,-3.15 -6.82,-7.03 -8.86,-11.71l-36.66 -97.15 -189.42 0 -36.66 97.15c-1.63,4.07 -4.49,7.85 -8.55,11.31 -4.07,3.46 -9.17,5.19 -15.29,5.19l-55.29 0 174.45 -439.96 72.41 0 174.46 439.96z"/>
  <path id="6" fill="#1D3244" fill-rule="nonzero" d="M3847.18 1194.71l0 439.96 -62.94 0 0 -301.55c0,-4.89 0.2,-10.29 0.51,-16.09 0.3,-5.81 0.71,-11.61 1.32,-17.52l-141.46 261.22c-5.5,10.8 -13.95,16.2 -25.36,16.2l-10.09 0c-11.6,0 -20.05,-5.4 -25.35,-16.2l-143.59 -261.84c0.6,5.91 1.11,11.81 1.43,17.72 0.3,5.9 0.4,11.4 0.4,16.5l0 301.55 -62.94 0 0 -439.96 53.48 0c6.31,0 11.2,0.51 14.66,1.63 3.46,1.12 6.61,4.59 9.46,10.29l141.16 255.72c3.06,5.91 6.01,11.91 8.76,18.13 2.75,6.21 5.19,12.64 7.44,19.15 2.44,-6.51 5.09,-13.04 7.84,-19.45 2.75,-6.41 5.6,-12.53 8.65,-18.44l139.02 -255.11c2.85,-5.7 6.01,-9.16 9.47,-10.29 3.46,-1.11 8.35,-1.63 14.66,-1.63l53.47 0z"/>
  <path id="7" fill="#1D3244" fill-rule="nonzero" d="M4184.47 1469.69l-60.49 -160.71c-4.89,-12.43 -9.88,-28.21 -14.96,-47.35 -2.25,9.56 -4.69,18.33 -7.34,26.38 -2.65,8.04 -5.09,15.18 -7.34,21.28l-60.49 160.41 150.62 0zm135.35 164.98l-55.3 0c-6.31,0 -11.4,-1.63 -15.28,-4.79 -3.87,-3.15 -6.82,-7.03 -8.86,-11.71l-36.66 -97.15 -189.42 0 -36.66 97.15c-1.63,4.07 -4.49,7.85 -8.55,11.31 -4.07,3.46 -9.17,5.19 -15.29,5.19l-55.29 0 174.45 -439.96 72.41 0 174.46 439.96z"/>
  <path id="8" fill="#1D3244" fill-rule="nonzero" d="M4735.33 1194.71l0 439.96 -36.35 0c-5.5,0 -10.19,-1.01 -14.06,-2.95 -3.86,-1.94 -7.54,-5.1 -11,-9.57l-241.66 -310.41c0.6,5.9 1.11,11.71 1.43,17.51 0.3,5.81 0.4,11.2 0.4,16.09l0 289.34 -62.94 0 0 -439.96 37.28 0c3.06,0 5.7,0.1 7.85,0.41 2.14,0.3 4.06,0.91 5.9,1.73 1.84,0.81 3.56,2.04 5.2,3.66 1.63,1.64 3.35,3.67 5.19,6.11l241.97 310.72c-0.61,-6.31 -1.01,-12.53 -1.32,-18.64 -0.3,-6.11 -0.5,-11.81 -0.5,-17.11l0 -286.89 62.63 0z"/>
  <path id="9" fill="#1D3244" fill-rule="nonzero" d="M5072.93 1469.69l-60.49 -160.71c-4.89,-12.43 -9.88,-28.21 -14.96,-47.35 -2.25,9.56 -4.69,18.33 -7.34,26.38 -2.65,8.04 -5.09,15.18 -7.34,21.28l-60.49 160.41 150.62 0zm135.35 164.98l-55.3 0c-6.31,0 -11.4,-1.63 -15.28,-4.79 -3.87,-3.15 -6.82,-7.03 -8.86,-11.71l-36.66 -97.15 -189.42 0 -36.66 97.15c-1.63,4.07 -4.49,7.85 -8.55,11.31 -4.07,3.46 -9.17,5.19 -15.29,5.19l-55.29 0 174.45 -439.96 72.41 0 174.46 439.96z"/>
  <polygon id="10" fill="#1D3244" fill-rule="nonzero" points="5623.8,1194.71 5623.8,1634.67 5552.3,1634.67 5552.3,1438.82 5331.41,1438.82 5331.41,1634.67 5259.61,1634.67 5259.61,1194.71 5331.41,1194.71 5331.41,1387.2 5552.3,1387.2 5552.3,1194.71 "/>
  <polygon id="11" fill="#1D3244" fill-rule="nonzero" points="6690.09,1254.29 6552.91,1254.29 6552.91,1634.67 6481.73,1634.67 6481.73,1254.29 6344.24,1254.29 6344.24,1194.71 6690.09,1194.71 "/>
  <polygon id="12" fill="#1D3244" fill-rule="nonzero" points="7025.86,1576.93 7025.55,1634.67 6751.19,1634.67 6751.19,1194.71 7025.55,1194.71 7025.55,1252.45 6822.99,1252.45 6822.99,1385.06 6984.93,1385.06 6984.93,1440.96 6822.99,1440.96 6822.99,1576.93 "/>
  <path id="13" fill="#1D3244" fill-rule="nonzero" d="M7230.87 1405.52c16.29,0 30.55,-2.04 42.77,-6 12.22,-3.97 22.41,-9.47 30.56,-16.6 8.14,-7.14 14.25,-15.69 18.33,-25.56 4.07,-9.89 6.11,-20.78 6.11,-32.8 0,-24.03 -7.95,-42.36 -23.84,-54.99 -15.88,-12.63 -39.92,-18.94 -72.1,-18.94l-58.04 0 0 154.9 56.22 0zm207.15 229.15l-63.85 0c-12.64,0 -21.8,-4.89 -27.5,-14.66l-102.65 -148.18c-3.46,-5.09 -7.24,-8.76 -11.31,-11 -4.06,-2.24 -10.18,-3.36 -18.33,-3.36l-39.72 0 0 177.21 -71.5 0 0 -439.96 129.54 0c28.93,0 53.88,2.95 74.75,8.86 20.88,5.9 37.99,14.25 51.44,25.15 13.44,10.9 23.42,24.04 29.84,39.31 6.41,15.28 9.56,32.28 9.56,51.02 0,15.28 -2.24,29.54 -6.81,42.78 -4.59,13.24 -11.21,25.26 -19.86,36.05 -8.66,10.8 -19.35,20.16 -31.98,28.11 -12.63,7.94 -26.99,14.15 -43.08,18.64 8.75,5.29 16.29,12.73 22.6,22.3l118.85 167.73z"/>
  <path id="14" fill="#1D3244" fill-rule="nonzero" d="M7628.05 1418.97c15.89,0 29.94,-2.04 42.06,-6.11 12.11,-4.07 22.2,-9.88 30.24,-17.31 8.05,-7.44 14.06,-16.4 18.14,-26.99 4.06,-10.59 6.1,-22.4 6.1,-35.44 0,-12.84 -1.93,-24.34 -5.9,-34.53 -3.97,-10.19 -9.99,-18.84 -17.93,-25.97 -7.95,-7.13 -17.93,-12.63 -30.04,-16.39 -12.12,-3.77 -26.39,-5.6 -42.68,-5.6l-65.38 0 0 168.34 65.38 0zm0 -224.26c28.71,0 53.67,3.36 74.75,10.09 21.08,6.71 38.49,16.09 52.24,28.2 13.75,12.12 23.94,26.69 30.66,43.69 6.71,17.01 10.08,35.85 10.08,56.43 0,20.98 -3.56,40.13 -10.69,57.54 -7.14,17.41 -17.72,32.39 -31.78,44.91 -14.05,12.53 -31.47,22.3 -52.35,29.33 -20.88,7.03 -45.22,10.59 -72.92,10.59l-65.38 0 0 159.18 -71.5 0 0 -439.96 136.88 0z"/>
  <polygon id="15" fill="#1D3244" fill-rule="nonzero" points="8138.89,1576.93 8138.58,1634.67 7864.22,1634.67 7864.22,1194.71 8138.58,1194.71 8138.58,1252.45 7936.02,1252.45 7936.02,1385.06 8097.95,1385.06 8097.95,1440.96 7936.02,1440.96 7936.02,1576.93 "/>
  <path id="16" fill="#1D3244" fill-rule="nonzero" d="M8343.9 1405.52c16.29,0 30.55,-2.04 42.77,-6 12.22,-3.97 22.41,-9.47 30.56,-16.6 8.14,-7.14 14.25,-15.69 18.33,-25.56 4.07,-9.89 6.11,-20.78 6.11,-32.8 0,-24.03 -7.95,-42.36 -23.84,-54.99 -15.88,-12.63 -39.92,-18.94 -72.1,-18.94l-58.04 0 0 154.9 56.22 0zm207.15 229.15l-63.85 0c-12.64,0 -21.8,-4.89 -27.5,-14.66l-102.65 -148.18c-3.46,-5.09 -7.24,-8.76 -11.31,-11 -4.06,-2.24 -10.18,-3.36 -18.33,-3.36l-39.72 0 0 177.21 -71.5 0 0 -439.96 129.54 0c28.93,0 53.88,2.95 74.75,8.86 20.88,5.9 37.99,14.25 51.44,25.15 13.44,10.9 23.42,24.04 29.84,39.31 6.41,15.28 9.56,32.28 9.56,51.02 0,15.28 -2.24,29.54 -6.81,42.78 -4.59,13.24 -11.21,25.26 -19.86,36.05 -8.66,10.8 -19.35,20.16 -31.98,28.11 -12.63,7.94 -26.99,14.15 -43.08,18.64 8.75,5.29 16.29,12.73 22.6,22.3l118.85 167.73z"/>
  <path id="17" fill="#1D3244" fill-rule="nonzero" d="M8904.53 1536.59c3.87,0 7.24,1.54 10.09,4.59l28.41 30.86c-17.93,21.59 -39.93,38.19 -65.99,49.9 -26.08,11.71 -57.24,17.61 -93.49,17.61 -32.19,0 -61.21,-5.6 -87.18,-16.7 -25.97,-11.1 -48.18,-26.58 -66.5,-46.44 -18.34,-19.86 -32.39,-43.49 -42.26,-70.99 -9.88,-27.49 -14.87,-57.74 -14.87,-90.74 0,-32.99 5.3,-63.34 15.79,-90.94 10.49,-27.6 25.26,-51.33 44.3,-71.19 19.05,-19.85 41.86,-35.23 68.44,-46.23 26.58,-11 55.81,-16.5 87.79,-16.5 31.78,0 59.88,5.09 84.22,15.38 24.34,10.29 45.43,24.04 63.35,41.14l-23.53 33.31c-1.64,2.24 -3.56,4.18 -5.81,5.8 -2.24,1.63 -5.29,2.44 -9.16,2.44 -4.07,0 -8.65,-1.93 -13.85,-5.7 -5.19,-3.76 -11.81,-7.94 -19.86,-12.53 -8.04,-4.58 -18.13,-8.75 -30.24,-12.53 -12.12,-3.76 -27.3,-5.6 -45.43,-5.6 -20.98,0 -40.23,3.66 -57.74,11 -17.51,7.33 -32.59,18.03 -45.22,32.08 -12.64,14.05 -22.41,31.16 -29.44,51.33 -7.03,20.16 -10.59,43.08 -10.59,68.74 0,25.87 3.66,48.89 11,69.15 7.33,20.27 17.41,37.38 30.24,51.33 12.84,13.96 27.91,24.65 45.23,31.99 17.31,7.33 35.95,10.99 55.9,10.99 12.22,0 23.22,-0.71 32.9,-2.04 9.68,-1.31 18.54,-3.46 26.68,-6.41 8.15,-2.95 15.89,-6.61 23.12,-11.1 7.23,-4.48 14.35,-9.98 21.49,-16.5 4.07,-3.66 8.15,-5.5 12.21,-5.5z"/>
  <path id="18" fill="#1D3244" fill-rule="nonzero" d="M9237.86 1469.69l-60.49 -160.71c-4.89,-12.43 -9.88,-28.21 -14.96,-47.35 -2.25,9.56 -4.69,18.33 -7.34,26.38 -2.65,8.04 -5.09,15.18 -7.34,21.28l-60.49 160.41 150.62 0zm135.35 164.98l-55.3 0c-6.31,0 -11.4,-1.63 -15.28,-4.79 -3.87,-3.15 -6.82,-7.03 -8.86,-11.71l-36.66 -97.15 -189.42 0 -36.66 97.15c-1.63,4.07 -4.49,7.85 -8.55,11.31 -4.07,3.46 -9.17,5.19 -15.29,5.19l-55.29 0 174.45 -439.96 72.41 0 174.46 439.96z"/>
  <path id="19" fill="#1D3244" fill-rule="nonzero" d="M9558.06 1462.35l0 172.32 -71.19 0 0 -172.32 -160.71 -267.64 62.64 0c6.31,0 11.3,1.53 14.96,4.59 3.67,3.05 6.72,6.93 9.17,11.6l90.13 157.66c4.07,7.94 7.84,15.48 11.2,22.61 3.36,7.13 6.31,14.15 8.96,21.08 2.24,-7.13 4.99,-14.26 8.25,-21.29 3.25,-7.03 6.93,-14.46 11,-22.4l89.52 -157.66c2.04,-4.07 4.99,-7.84 8.86,-11.2 3.86,-3.36 8.85,-4.99 14.96,-4.99l62.94 0 -160.71 267.64z"/>
  <path id="20" fill="#1D3244" fill-rule="nonzero" d="M9957.68 1469.69l-60.49 -160.71c-4.89,-12.43 -9.88,-28.21 -14.96,-47.35 -2.25,9.56 -4.69,18.33 -7.34,26.38 -2.65,8.04 -5.09,15.18 -7.34,21.28l-60.49 160.41 150.62 0zm135.35 164.98l-55.3 0c-6.31,0 -11.4,-1.63 -15.28,-4.79 -3.87,-3.15 -6.82,-7.03 -8.86,-11.71l-36.66 -97.15 -189.42 0 -36.66 97.15c-1.63,4.07 -4.49,7.85 -8.55,11.31 -4.07,3.46 -9.17,5.19 -15.29,5.19l-55.29 0 174.45 -439.96 72.41 0 174.46 439.96z"/>
  <path id="21" fill="#1D3244" fill-rule="nonzero" d="M2454.28 1453.19c0,-17.11 3.26,-33.3 9.78,-48.48 6.52,-15.18 15.38,-28.41 26.59,-39.72 11.2,-11.31 24.34,-20.16 39.3,-26.69 14.97,-6.51 30.86,-9.78 47.76,-9.78 17.11,0 33.2,3.26 48.28,9.78 15.08,6.52 28.21,15.38 39.41,26.69 11.2,11.3 20.06,24.54 26.58,39.72 6.52,15.18 9.78,31.36 9.78,48.48 0,17.11 -3.25,33.1 -9.78,48.07 -6.51,14.97 -15.38,28.11 -26.58,39.31 -11.2,11.2 -24.34,20.06 -39.41,26.59 -15.08,6.51 -31.16,9.78 -48.28,9.78 -16.9,0 -32.79,-3.26 -47.76,-9.78 -14.96,-6.52 -28.1,-15.39 -39.3,-26.59 -11.21,-11.2 -20.06,-24.34 -26.59,-39.31 -6.51,-14.96 -9.78,-30.95 -9.78,-48.07z"/>
  <path id="22" fill="#1D3244" fill-rule="nonzero" d="M5881.97 1453.19c0,-17.11 3.26,-33.3 9.78,-48.48 6.52,-15.18 15.38,-28.41 26.59,-39.72 11.2,-11.31 24.34,-20.16 39.3,-26.69 14.97,-6.51 30.86,-9.78 47.76,-9.78 17.11,0 33.2,3.26 48.28,9.78 15.08,6.52 28.21,15.38 39.41,26.69 11.2,11.3 20.06,24.54 26.58,39.72 6.52,15.18 9.78,31.36 9.78,48.48 0,17.11 -3.25,33.1 -9.78,48.07 -6.51,14.97 -15.38,28.11 -26.58,39.31 -11.2,11.2 -24.34,20.06 -39.41,26.59 -15.08,6.51 -31.16,9.78 -48.28,9.78 -16.9,0 -32.79,-3.26 -47.76,-9.78 -14.96,-6.52 -28.1,-15.39 -39.3,-26.59 -11.21,-11.2 -20.06,-24.34 -26.59,-39.31 -6.51,-14.96 -9.78,-30.95 -9.78,-48.07z"/>
 </g>
</svg>
