<?xml version="1.0" encoding="UTF-8"?>
<!DOCTYPE svg PUBLIC "-//W3C//DTD SVG 1.1//EN" "http://www.w3.org/Graphics/SVG/1.1/DTD/svg11.dtd">
<!-- Creator: CorelDRAW 2019 (64-Bit) -->
<svg xmlns="http://www.w3.org/2000/svg" xml:space="preserve" width="35.1535mm" height="22.7362mm" version="1.1" shape-rendering="geometricPrecision" text-rendering="geometricPrecision" image-rendering="optimizeQuality" fill-rule="evenodd" clip-rule="evenodd"
viewBox="0 0 723.24 467.77"
 xmlns:xlink="http://www.w3.org/1999/xlink"
 xmlns:xodm="http://www.corel.com/coreldraw/odm/2003">
 <g id="OBJECTS">
  <metadata id="CorelCorpID_0Corel-Layer"/>
  <g id="_2143166592432">
   <polygon fill="#62951F" fill-rule="nonzero" points="608.41,435.2 151.83,435.2 151.83,427.14 608.41,427.14 "/>
   <g>
    <polygon fill="#62951F" fill-rule="nonzero" points="369.69,427.14 379.95,427.14 374.82,391.52 "/>
    <polygon fill="#62951F" fill-rule="nonzero" points="389.52,427.14 399.78,427.14 394.65,391.52 "/>
    <polygon fill="#62951F" fill-rule="nonzero" points="409.35,427.14 419.6,427.14 414.48,391.52 "/>
    <polygon fill="#62951F" fill-rule="nonzero" points="429.18,427.14 439.43,427.14 434.31,391.52 "/>
    <polygon fill="#62951F" fill-rule="nonzero" points="454.14,391.52 449.01,427.14 459.26,427.14 "/>
   </g>
   <g>
    <polygon fill="#62951F" fill-rule="nonzero" points="167.94,427.14 178.19,427.14 173.07,391.52 "/>
    <polygon fill="#62951F" fill-rule="nonzero" points="187.77,427.14 198.02,427.14 192.9,391.52 "/>
    <polygon fill="#62951F" fill-rule="nonzero" points="207.6,427.14 217.85,427.14 212.73,391.52 "/>
    <polygon fill="#62951F" fill-rule="nonzero" points="232.55,391.52 227.43,427.14 237.68,427.14 "/>
   </g>
   <g>
    <polygon fill="#62951F" fill-rule="nonzero" points="593.58,427.14 603.84,427.14 598.71,391.52 "/>
   </g>
  </g>
  <path fill="#1C3144" fill-rule="nonzero" d="M675.32 213.16c7.21,-100.79 8.12,-137.22 -16.5,-143.2 -2.39,-4.31 -5.85,-8.04 -10.19,-10.75 -4.72,-2.95 -10.14,-4.5 -15.67,-4.5 -0.78,0 -1.56,0.03 -2.35,0.09 -19.61,1.56 -65.62,5.23 -107.75,8.67 0,0 0,0.01 0,0.02 -93.92,5.94 -195.25,1.11 -243.52,-1.97 -9.76,-0.69 -19.41,-1.38 -28.74,-2.06 -7.73,9.52 -20.13,22.9 -31.51,26.41 -13.33,4.11 -22.2,-5.35 -27.74,-12.37 3,3 8.05,6.83 14.34,6.83 2.71,0 5.65,-0.71 8.75,-2.51 14.93,-8.65 36.67,-34.32 36.67,-34.32 -10.61,-11.25 -21.92,-14.93 -32.17,-14.93 -19.34,0 -34.89,13.09 -34.89,13.09l-12.1 -9.21c-2.02,-2.52 -4.28,-4.84 -6.76,-6.91 -9.21,-23.99 -32.34,-25.56 -38.25,-25.56 -0.89,0 -1.39,0.03 -1.39,0.03 0,0 -0.5,-0.03 -1.39,-0.03 -5.91,0 -29.04,1.57 -38.25,25.56 -2.48,2.07 -4.74,4.39 -6.76,6.91l-12.1 9.21c0,0 -15.56,-13.09 -34.89,-13.09 -10.24,0 -21.55,3.68 -32.17,14.93 0,0 21.74,25.67 36.67,34.32 3.1,1.79 6.04,2.51 8.74,2.51 10.34,0 17.36,-10.37 17.36,-10.37l17.12 11.84c-4.12,13.37 4.45,27.11 4.45,27.11 -1.05,35.62 11.53,52.87 11.53,52.87 0,0 -7.6,27.63 -6.02,31.3 1.57,3.67 15.32,6.42 15.32,6.42 3.29,4.13 8.28,5.17 12.5,5.17 4.35,0 7.89,-1.12 7.89,-1.12 0,0 3.53,1.12 7.89,1.12 4.22,0 9.21,-1.05 12.5,-5.17 0,0 13.75,-2.75 15.33,-6.42 1.57,-3.67 -6.03,-31.3 -6.03,-31.3 0,0 9.35,-12.85 11.25,-39.26 3.48,18.44 1.72,30.8 -1.37,36.55 7.27,27.28 5.78,35.14 4.69,37.68 -0.83,1.92 -2.86,6.58 -15.24,10.21 3.29,10.1 6.43,22.42 8.92,37.38 8.96,53.78 30.42,72.43 52.46,74.9l17.44 62.05 0 55.52 -25.71 30.97 49.67 0 0 -26.3 9.94 -2.92 -11.69 -79.48 11.69 -12.27 2.56 -9.5 -9.67 -35.42c-22.58,-3.58 -35.8,-17.08 -35.8,-17.08 13.77,8.26 42.86,7.71 42.86,7.71l7.51 26.59 0.06 -0.21 17.53 62.39 0 55.52 -25.71 30.97 49.67 0 0 -26.3 9.94 -2.92 -11.69 -79.48 11.69 -12.27 4.62 -46.86c21.03,3.71 49.61,7.4 80.07,7.4 16.04,0 32.58,-1.04 48.83,-3.62 25.76,14.75 91.2,44.44 91.2,44.44 0,0 8.2,17.14 9.31,20.49 1.12,3.35 -9.31,65.95 -9.31,65.95l1.86 10.81 -22.36 22.36 47.69 0 -1.49 -18.26 10.06 0 0 -107.5c-8.91,-5.55 -21.42,-13.35 -31.35,-19.5 -29.33,-18.18 -30.98,-41.52 -30.98,-41.52l-39.8 -16.7 49.02 9.88c0,0 -3.4,27.76 53.1,56.84 20.01,9.48 36.91,17.15 36.91,17.15 0,0 8.2,17.14 9.32,20.49 1.12,3.35 -9.32,65.95 -9.32,65.95l1.86 10.81 -22.36 22.36 47.69 0 -1.49 -18.26 10.06 0 0 -130.78c-7.38,-10.48 -12.82,-20.39 -16.71,-29.91 -0.02,-0.04 -0.03,-0.08 -0.05,-0.12 -20.95,-51.47 3.53,-91.4 11.92,-146.87 3.24,-20.19 5.75,-38.39 7.45,-51.53 13.86,15.65 4.56,79.72 3.51,122.83 -1.24,50.81 1.96,69.61 1.96,69.61 0,0 -11.81,37.23 4.96,55.77 16.76,18.54 50.81,16.7 50.81,16.7 0,0 -56.18,-26.62 -47.92,-142.06zm-543.5 -104.05l0 0c0,29.19 9.09,47.92 9.09,47.92 0,0 6.61,23.68 6.61,24.79 0,1.1 0,0 -1.1,1.93 -1.1,1.93 -20.86,6.06 -20.86,6.06 0,0 -19.76,-4.13 -20.86,-6.06 -1.1,-1.93 -1.1,-0.83 -1.1,-1.93 0,-1.1 6.61,-24.79 6.61,-24.79 0,0 9.09,-18.73 9.09,-47.92 0,-29.19 -30.36,-62.03 -30.36,-62.03 0,0 11.57,-31.19 36.63,-36.56 25.06,5.37 36.63,36.56 36.63,36.56 0,0 -30.36,32.84 -30.36,62.03zm177.3 53.13l0 0c-13.62,4.02 -26.56,-5.85 -7.87,-23.16 17.55,-3.72 21.48,19.14 7.87,23.16zm-50.23 84.45l0 0c-41.75,23.79 -18.15,-20.44 -45.45,-33.18 -27.29,-12.74 -21.11,-28.15 23.06,-69.04 50.23,-23.46 38.73,37.53 84.72,31.5 45.99,-6.03 -20.58,46.92 -62.33,70.71zm180.59 -53.23l0 0c-26.31,-44.65 -69.55,3.48 -121.93,-116.58 86.34,5.03 160.89,3.68 204.22,2 -5.08,19.82 -22.3,35.52 -22.3,35.52 32.63,97.89 -32.63,125.5 -59.99,79.06zm180.68 56.28l0 0c0.01,0.76 -0.05,1.51 -0.06,2.27 -16.03,-10.22 -11.19,-5.69 -33.41,-24.9 -28.23,-24.43 -8.93,-51.87 8.39,-46.99 17.31,4.88 -1.93,-40.02 22.85,-41.44 9.97,-0.57 17.32,-0.11 24.11,0.84 0,26.34 -22.27,65.78 -21.88,110.22z"/>
 </g>
</svg>
