<?xml version="1.0" encoding="UTF-8"?>
<!DOCTYPE svg PUBLIC "-//W3C//DTD SVG 1.1//EN" "http://www.w3.org/Graphics/SVG/1.1/DTD/svg11.dtd">
<!-- Creator: CorelDRAW 2019 (64-Bit) -->
<svg xmlns="http://www.w3.org/2000/svg" xml:space="preserve" width="176.389mm" height="176.389mm" version="1.1" shape-rendering="geometricPrecision" text-rendering="geometricPrecision" image-rendering="optimizeQuality" fill-rule="evenodd" clip-rule="evenodd"
viewBox="0 0 17638.88 17638.88"
 xmlns:xlink="http://www.w3.org/1999/xlink"
 xmlns:xodm="http://www.corel.com/coreldraw/odm/2003">
 <g id="OBJECTS">
  <metadata id="CorelCorpID_0Corel-Layer"/>
  <g id="_2143158199904">
   <polygon fill="#62951F" fill-rule="nonzero" points="13294.23,10886.57 4689.13,10886.57 4689.13,10734.72 13294.23,10734.72 "/>
   <g>
    <polygon fill="#62951F" fill-rule="nonzero" points="8795.15,10734.72 8988.42,10734.72 8891.78,10063.42 "/>
    <polygon fill="#62951F" fill-rule="nonzero" points="9168.86,10734.72 9362.13,10734.72 9265.49,10063.42 "/>
    <polygon fill="#62951F" fill-rule="nonzero" points="9542.57,10734.72 9735.84,10734.72 9639.21,10063.42 "/>
    <polygon fill="#62951F" fill-rule="nonzero" points="9916.28,10734.72 10109.55,10734.72 10012.91,10063.42 "/>
    <polygon fill="#62951F" fill-rule="nonzero" points="10386.63,10063.42 10289.99,10734.72 10483.26,10734.72 "/>
   </g>
   <g>
    <polygon fill="#62951F" fill-rule="nonzero" points="4992.76,10734.72 5186.02,10734.72 5089.39,10063.42 "/>
    <polygon fill="#62951F" fill-rule="nonzero" points="5366.47,10734.72 5559.73,10734.72 5463.1,10063.42 "/>
    <polygon fill="#62951F" fill-rule="nonzero" points="5740.18,10734.72 5933.44,10734.72 5836.81,10063.42 "/>
    <polygon fill="#62951F" fill-rule="nonzero" points="6210.52,10063.42 6113.89,10734.72 6307.15,10734.72 "/>
   </g>
   <g>
    <polygon fill="#62951F" fill-rule="nonzero" points="13014.74,10734.72 13208,10734.72 13111.37,10063.42 "/>
   </g>
  </g>
  <path fill="#1C3144" fill-rule="nonzero" d="M12904.08 7276.29c97.98,-1368.96 110.38,-1863.92 -224.09,-1945.13 -32.4,-58.51 -79.43,-109.17 -138.48,-146.07 -64.04,-40.03 -137.75,-61.09 -212.82,-61.09 -10.6,0 -21.22,0.42 -31.85,1.27 -266.4,21.19 -891.36,71.05 -1463.53,117.72 0.01,0.07 0.02,0.15 0.03,0.23 -1275.74,80.72 -2652.05,15.05 -3307.77,-26.76 -132.58,-9.4 -263.67,-18.81 -390.44,-27.99 -105,129.24 -273.47,311.13 -428.01,358.8 -181.12,55.89 -301.56,-72.69 -376.76,-168.01 40.75,40.8 109.31,92.79 194.74,92.79 36.8,0 76.68,-9.65 118.78,-34.02 202.8,-117.42 498.12,-466.1 498.12,-466.1 -144.17,-152.79 -297.79,-202.76 -436.93,-202.76 -262.65,0 -473.91,177.85 -473.91,177.85l-164.34 -125.09c-27.49,-34.2 -58.16,-65.7 -91.81,-93.83 -125.11,-325.81 -439.35,-347.17 -519.59,-347.18 -12.11,0 -18.87,0.49 -18.87,0.49 0,0 -6.78,-0.49 -18.88,-0.49 -80.22,0 -394.47,21.35 -519.59,347.18 -33.66,28.13 -64.32,59.63 -91.81,93.83l-164.34 125.09c0,0 -211.29,-177.84 -473.91,-177.85 -139.16,0 -292.74,49.94 -436.93,202.76 0,0 295.31,348.68 498.12,466.1 42.08,24.35 81.99,34.02 118.78,34.02 140.5,0 235.83,-140.77 235.83,-140.77l232.51 160.76c-55.97,181.63 60.43,368.19 60.43,368.19 -14.23,483.89 156.55,718.12 156.55,718.12 0,0 -103.18,375.37 -81.83,425.18 21.34,49.81 208.14,87.17 208.14,87.17 44.66,56.04 112.47,70.28 169.8,70.28 59.14,0 107.13,-15.13 107.13,-15.13 0,0 47.99,15.13 107.12,15.13 57.33,0 125.14,-14.23 169.8,-70.28 0,0 186.8,-37.36 208.15,-87.17 21.35,-49.81 -81.84,-425.18 -81.84,-425.18 0,0 127.07,-174.57 152.79,-533.29 47.28,250.49 23.37,418.35 -18.58,496.41 98.79,370.59 78.44,477.32 63.67,511.77 -11.2,26.13 -38.85,89.43 -206.98,138.68 44.73,137.2 87.3,304.57 121.16,507.73 121.74,730.47 413.2,983.78 712.62,1017.39l236.83 842.86 0 754.11 -349.26 420.71 674.72 0 0 -357.21 134.95 -39.69 -158.76 -1079.56 158.76 -166.7 34.7 -129.08 -131.37 -481.18c-306.75,-48.63 -486.3,-231.93 -486.3,-231.93 187.04,112.22 582.16,104.74 582.16,104.74l101.97 361.2 0.77 -2.89 238.14 847.48 0 754.11 -349.27 420.71 674.73 0 0 -357.21 134.94 -39.69 -158.76 -1079.56 158.76 -166.7 62.73 -636.48c285.62,50.37 673.81,100.52 1087.61,100.52 217.8,0 442.6,-14.1 663.28,-49.15 349.97,200.31 1238.83,603.67 1238.83,603.67 0,0 111.34,232.81 126.52,278.36 15.19,45.54 -126.52,895.81 -126.52,895.81l25.3 146.77 -303.66 303.66 647.82 0 -20.25 -247.99 136.65 0 0 -1460.23c-120.98,-75.44 -290.92,-181.29 -425.8,-264.87 -398.4,-246.9 -420.84,-563.93 -420.84,-563.93l-540.55 -226.8 665.86 134.22c0,0 -46.17,377.05 721.33,772.08 271.73,128.75 501.29,232.92 501.29,232.92 0,0 111.34,232.81 126.53,278.36 15.18,45.54 -126.53,895.81 -126.53,895.81l25.3 146.77 -303.66 303.66 647.82 0 -20.25 -247.99 136.65 0 0 -1776.43c-100.31,-142.34 -174.19,-277 -226.98,-406.29 -0.22,-0.54 -0.44,-1.09 -0.66,-1.62 -284.56,-699.08 48,-1241.52 161.91,-1994.96 44.02,-274.21 78.16,-521.45 101.25,-699.9 188.27,212.59 61.95,1082.87 47.66,1668.48 -16.83,690.18 26.66,945.48 26.66,945.48 0,0 -160.34,505.65 67.33,757.5 227.67,251.87 690.18,226.89 690.18,226.89 0,0 -763.12,-361.56 -650.9,-1929.59zm-7382.43 -1413.36l0 0c0,396.52 123.44,650.89 123.44,650.89 0,0 89.79,321.71 89.79,336.67 0,14.97 0,0 -14.97,26.19 -14.96,26.18 -283.36,82.3 -283.36,82.3 0,0 -268.41,-56.12 -283.37,-82.3 -14.96,-26.19 -14.96,-11.22 -14.96,-26.19 0,-14.96 89.77,-336.67 89.77,-336.67 0,0 123.45,-254.37 123.45,-650.89 0,-396.53 -412.42,-842.61 -412.42,-842.61 0,0 157.11,-423.65 497.53,-496.6 340.41,72.95 497.52,496.6 497.52,496.6 0,0 -412.42,446.08 -412.42,842.61zm2408.29 721.62l0 0c-184.94,54.63 -360.78,-79.48 -106.85,-314.55 238.37,-50.53 291.8,259.93 106.85,314.55zm-682.23 1147.1l0 0c-567.16,323.19 -246.59,-277.67 -617.34,-450.64 -370.75,-172.98 -286.83,-382.37 313.21,-937.71 682.24,-318.64 526.06,509.82 1150.76,427.85 624.7,-81.97 -279.47,637.31 -846.63,960.5zm2453.01 -723.08l0 0c-357.39,-606.46 -944.69,47.29 -1656.12,-1583.58 1172.79,68.32 2185.41,50.05 2773.93,27.19 -68.96,269.25 -302.92,482.46 -302.92,482.46 443.2,1329.62 -443.21,1704.64 -814.89,1073.93zm2454.25 764.47l0 0c0.09,10.28 -0.61,20.55 -0.76,30.83 -217.76,-138.77 -152.02,-77.24 -453.73,-338.24 -383.51,-331.78 -121.27,-704.59 113.92,-638.32 235.18,66.27 -26.15,-543.62 310.31,-562.85 135.43,-7.74 235.32,-1.5 327.46,11.44 0,357.8 -302.42,893.5 -297.2,1497.14z"/>
 </g>
 <g id="TEXTS">
  <metadata id="CorelCorpID_1Corel-Layer"/>
  <g id="_2143158197664">
   <path fill="#1D3244" fill-rule="nonzero" d="M4397.01 12467.1c-75.01,0 -144.91,-13.63 -209.69,-40.91 -64.78,-27.28 -121.53,-65.03 -170.24,-113.25 -48.71,-48.22 -86.46,-104.72 -113.25,-169.51 -26.79,-64.78 -40.18,-134.19 -40.18,-208.23 0,-74.04 13.39,-142.96 40.18,-206.77 26.79,-63.81 64.3,-119.82 112.52,-168.04 48.22,-48.23 104.48,-85.73 168.78,-112.52 64.29,-26.79 133.95,-40.19 208.96,-40.19 75.01,0 144.66,13.4 208.96,40.19 64.3,26.79 120.8,64.29 169.51,112.52 48.71,48.22 86.46,104.48 113.25,168.77 26.79,64.3 40.18,133.47 40.18,207.5 0,74.04 -13.39,143.21 -40.18,207.5 -26.79,64.3 -64.3,120.56 -112.52,168.78 -48.22,48.22 -104.48,85.97 -168.78,113.25 -64.29,27.28 -133.46,40.91 -207.5,40.91zm463.22 59.92l-470.53 -470.53 119.83 -121.29 471.99 471.99 -121.29 119.83zm-466.14 -245.5c65.27,0 122.5,-14.61 171.7,-43.84 49.19,-29.22 87.67,-69.65 115.44,-121.28 27.76,-51.63 41.64,-112.03 41.64,-181.2 0,-50.66 -8.03,-96.93 -24.11,-138.82 -16.07,-41.89 -38.72,-78.18 -67.95,-108.86 -29.22,-30.69 -63.81,-54.31 -103.75,-70.88 -39.94,-16.56 -84.26,-24.84 -132.97,-24.84 -64.3,0 -121.04,14.37 -170.24,43.11 -49.2,28.74 -87.68,68.92 -115.44,120.56 -27.76,51.63 -41.65,111.54 -41.65,179.73 0,51.63 8.04,98.88 24.11,141.74 16.08,42.87 38.48,79.4 67.22,109.6 28.74,30.2 63.32,53.58 103.75,70.14 40.43,16.56 84.51,24.84 132.25,24.84z"/>
   <path id="1" fill="#1D3244" fill-rule="nonzero" d="M5517.8 12465.64c-80.85,0 -152.7,-17.78 -215.53,-53.33 -62.84,-35.56 -112.28,-84.51 -148.32,-146.86 -36.05,-62.35 -54.07,-132.98 -54.07,-211.89l0 -629.8 198.73 0 0 635.65c0,45.79 9.5,85.24 28.5,118.36 18.99,33.12 45.3,58.7 78.91,76.72 33.61,18.02 70.87,27.03 111.78,27.03 41.89,0 78.91,-9.01 111.06,-27.03 32.15,-18.02 57.72,-43.6 76.72,-76.72 18.99,-33.12 28.49,-72.09 28.49,-116.9l0 -637.11 200.2 0 0 631.27c0,78.9 -18.03,149.29 -54.07,211.15 -36.05,61.86 -85,110.57 -146.86,146.13 -61.86,35.55 -133.71,53.33 -215.54,53.33z"/>
   <path id="2" fill="#1D3244" fill-rule="nonzero" d="M6276.2 12021.42l0 -154.9 238.19 0c48.7,0 86.45,-12.42 113.24,-37.26 26.79,-24.84 40.19,-59.18 40.19,-103.02 0,-39.94 -13.4,-73.31 -40.19,-100.1 -26.79,-26.79 -64.54,-40.18 -113.24,-40.18l-238.19 0 0 -162.2 255.72 0c66.24,0 124.45,12.91 174.62,38.72 50.17,25.82 89.14,61.13 116.9,105.94 27.77,44.82 41.65,96.45 41.65,154.9 0,60.4 -13.88,112.76 -41.65,157.08 -27.76,44.33 -66.97,78.91 -117.63,103.75 -50.66,24.85 -109.59,37.27 -176.81,37.27l-252.8 0zm-146.13 429.61l0 -1027.27 198.73 0 0 1027.27 -198.73 0zm561.13 0l-339.02 -444.23 182.66 -56.99 397.47 501.22 -241.11 0z"/>
   <path id="3" fill="#1D3244" fill-rule="nonzero" d="M7190.96 12451.03l0 -162.2 267.41 0c47.74,0 85,-14.61 111.79,-43.84 26.79,-29.22 40.18,-63.81 40.18,-103.75 0,-27.28 -5.84,-52.12 -17.53,-74.52 -11.69,-22.41 -28.98,-40.19 -51.88,-53.34 -22.89,-13.15 -50.41,-19.73 -82.56,-19.73l-267.41 0 0 -160.74 245.49 0c40.92,0 73.8,-10.23 98.64,-30.68 24.84,-20.46 37.26,-51.15 37.26,-92.06 0,-41.89 -12.42,-73.07 -37.26,-93.53 -24.84,-20.45 -57.72,-30.68 -98.64,-30.68l-245.49 0 0 -162.2 268.87 0c68.19,0 125.43,12.42 171.7,37.26 46.27,24.84 81.1,57.48 104.48,97.9 23.38,40.43 35.07,84.51 35.07,132.25 0,58.45 -17.78,108.86 -53.33,151.24 -35.56,42.38 -87.44,73.8 -155.63,94.25l8.77 -64.29c75.98,21.43 134.68,56.74 176.08,105.94 41.4,49.2 62.11,108.38 62.11,177.54 0,54.56 -13.4,104 -40.19,148.32 -26.79,44.33 -65.76,79.89 -116.9,106.68 -51.15,26.79 -113.25,40.18 -186.31,40.18l-274.72 0zm-146.13 0l0 -1027.27 197.27 0 0 1027.27 -197.27 0z"/>
   <path id="4" fill="#1D3244" fill-rule="nonzero" d="M7890.91 12451.03l413.53 -1027.27 162.21 0 412.07 1027.27 -211.88 0 -318.56 -843.15 73.07 0 -322.94 843.15 -207.5 0zm219.19 -191.43l0 -166.58 552.36 0 0 166.58 -552.36 0z"/>
   <path id="5" fill="#1D3244" fill-rule="nonzero" d="M9000.01 12451.03l0 -1027.27 138.82 0 59.91 198.73 0 828.54 -198.73 0zm710.18 0l-609.35 -789.09 37.99 -238.18 609.35 789.08 -37.99 238.19zm0 0l-56.99 -192.89 0 -834.38 200.19 0 0 1027.27 -143.2 0z"/>
   <path id="6" fill="#1D3244" fill-rule="nonzero" d="M10683.39 12451.03l-445.69 -536.29 434 -490.98 248.42 0 -483.68 533.36 0 -92.06 499.75 585.97 -252.8 0zm-621.04 0l0 -1027.27 198.73 0 0 1027.27 -198.73 0z"/>
   <path id="7" fill="#1D3244" fill-rule="nonzero" d="M11425.71 12465.64c-80.85,0 -152.7,-17.78 -215.53,-53.33 -62.84,-35.56 -112.28,-84.51 -148.32,-146.86 -36.05,-62.35 -54.07,-132.98 -54.07,-211.89l0 -629.8 198.73 0 0 635.65c0,45.79 9.5,85.24 28.5,118.36 18.99,33.12 45.3,58.7 78.91,76.72 33.61,18.02 70.87,27.03 111.78,27.03 41.89,0 78.91,-9.01 111.06,-27.03 32.15,-18.02 57.72,-43.6 76.72,-76.72 18.99,-33.12 28.49,-72.09 28.49,-116.9l0 -637.11 200.2 0 0 631.27c0,78.9 -18.03,149.29 -54.07,211.15 -36.05,61.86 -85,110.57 -146.86,146.13 -61.86,35.55 -133.71,53.33 -215.54,53.33z"/>
   <path id="8" fill="#63961F" fill-rule="nonzero" d="M12149.04 12465.64c-35.07,0 -63.81,-11.69 -86.22,-35.07 -22.4,-23.38 -33.61,-52.12 -33.61,-86.21 0,-34.1 11.21,-62.84 33.61,-86.22 22.41,-23.38 51.15,-35.07 86.22,-35.07 34.09,0 62.35,11.69 84.75,35.07 22.41,23.38 33.61,52.12 33.61,86.22 0,34.09 -11.2,62.83 -33.61,86.21 -22.4,23.38 -50.66,35.07 -84.75,35.07z"/>
   <polygon id="9" fill="#63961F" fill-rule="nonzero" points="12469.05,12451.03 12469.05,11423.76 12667.78,11423.76 12667.78,12451.03 "/>
   <path id="10" fill="#63961F" fill-rule="nonzero" d="M13014.11 12451.03l0 -176.81 261.57 0c66.24,0 124.2,-13.89 173.89,-41.65 49.68,-27.76 88.4,-66.97 116.17,-117.63 27.76,-50.66 41.65,-110.57 41.65,-179.74 0,-67.22 -14.13,-125.91 -42.38,-176.08 -28.25,-50.17 -67.22,-89.14 -116.9,-116.9 -49.69,-27.77 -107.16,-41.65 -172.43,-41.65l-265.95 0 0 -176.81 268.87 0c75.99,0 146.37,12.66 211.15,37.99 64.79,25.33 121.29,61.13 169.51,107.4 48.22,46.28 85.73,100.59 112.52,162.94 26.79,62.34 40.18,130.54 40.18,204.57 0,74.04 -13.39,142.48 -40.18,205.31 -26.79,62.84 -64.05,117.39 -111.79,163.66 -47.73,46.28 -103.99,82.08 -168.78,107.41 -64.78,25.33 -134.68,37.99 -209.69,37.99l-267.41 0zm-135.9 0l0 -1027.27 198.73 0 0 1027.27 -198.73 0z"/>
  </g>
  <path fill="#1D3244" fill-rule="nonzero" d="M4276.07 12598.03l0 438.35 -62.71 0 0 -300.45c0,-4.87 0.2,-10.25 0.51,-16.03 0.3,-5.79 0.71,-11.57 1.32,-17.46l-140.94 260.27c-5.48,10.76 -13.9,16.14 -25.27,16.14l-10.05 0c-11.56,0 -19.98,-5.38 -25.26,-16.14l-143.07 -260.88c0.6,5.89 1.11,11.77 1.42,17.66 0.3,5.88 0.4,11.36 0.4,16.44l0 300.45 -62.71 0 0 -438.35 53.28 0c6.29,0 11.16,0.51 14.61,1.62 3.45,1.12 6.59,4.57 9.43,10.25l140.64 254.79c3.05,5.89 5.99,11.87 8.73,18.06 2.74,6.19 5.17,12.59 7.41,19.08 2.43,-6.49 5.07,-12.99 7.81,-19.38 2.74,-6.39 5.58,-12.48 8.62,-18.37l138.51 -254.18c2.84,-5.68 5.99,-9.13 9.44,-10.25 3.45,-1.11 8.32,-1.62 14.61,-1.62l53.27 0z"/>
  <path id="1" fill="#1D3244" fill-rule="nonzero" d="M4553.08 12978.85c16.84,0 31.96,-2.84 45.25,-8.53 13.3,-5.68 24.56,-13.59 33.79,-23.74 9.24,-10.15 16.24,-22.43 21.11,-36.73 4.87,-14.31 7.31,-30.14 7.31,-47.59l0 -264.23 70.92 0 0 264.23c0,25.77 -4.06,49.62 -12.27,71.53 -8.22,21.92 -20.1,40.79 -35.52,56.73 -15.42,15.93 -34.09,28.41 -56.11,37.44 -22.02,9.03 -46.88,13.59 -74.48,13.59 -27.6,0 -52.36,-4.56 -74.38,-13.59 -22.02,-9.03 -40.79,-21.51 -56.21,-37.44 -15.43,-15.94 -27.2,-34.81 -35.42,-56.73 -8.21,-21.91 -12.38,-45.76 -12.38,-71.53l0 -264.23 71.24 0 0 263.92c0,17.46 2.43,33.29 7.3,47.59 4.87,14.31 11.87,26.59 21.01,36.84 9.13,10.24 20.39,18.26 33.68,23.94 13.3,5.69 28.31,8.53 45.16,8.53z"/>
  <path id="2" fill="#1D3244" fill-rule="nonzero" d="M4957.64 12808.07c16.23,0 30.44,-2.03 42.61,-5.98 12.18,-3.96 22.33,-9.44 30.45,-16.54 8.11,-7.11 14.2,-15.63 18.26,-25.47 4.06,-9.85 6.09,-20.7 6.09,-32.68 0,-23.94 -7.92,-42.21 -23.75,-54.79 -15.82,-12.58 -39.77,-18.87 -71.84,-18.87l-57.83 0 0 154.33 56.01 0zm206.39 228.31l-63.62 0c-12.59,0 -21.72,-4.87 -27.4,-14.61l-102.28 -147.64c-3.45,-5.07 -7.21,-8.73 -11.27,-10.96 -4.05,-2.23 -10.14,-3.35 -18.26,-3.35l-39.57 0 0 176.56 -71.24 0 0 -438.35 129.07 0c28.82,0 53.68,2.94 74.48,8.83 20.8,5.88 37.85,14.2 51.25,25.06 13.39,10.86 23.33,23.95 29.73,39.17 6.39,15.22 9.53,32.16 9.53,50.83 0,15.22 -2.23,29.43 -6.79,42.62 -4.57,13.19 -11.17,25.17 -19.79,35.92 -8.63,10.76 -19.28,20.09 -31.86,28.01 -12.58,7.91 -26.89,14.1 -42.92,18.57 8.72,5.27 16.23,12.68 22.52,22.22l118.42 167.12z"/>
  <path id="3" fill="#1D3244" fill-rule="nonzero" d="M5448.95 12872l-60.27 -160.12c-4.87,-12.38 -9.84,-28.11 -14.91,-47.18 -2.24,9.53 -4.67,18.26 -7.31,26.28 -2.64,8.01 -5.07,15.12 -7.31,21.2l-60.27 159.82 150.07 0zm134.86 164.38l-55.1 0c-6.29,0 -11.36,-1.62 -15.22,-4.77 -3.86,-3.14 -6.8,-7 -8.83,-11.67l-36.53 -96.8 -188.73 0 -36.53 96.8c-1.62,4.06 -4.47,7.82 -8.52,11.27 -4.06,3.45 -9.14,5.17 -15.23,5.17l-55.09 0 173.81 -438.35 72.15 0 173.82 438.35z"/>
  <polygon id="4" fill="#1D3244" fill-rule="nonzero" points="5997.8,12598.03 5997.8,13036.38 5926.57,13036.38 5926.57,12841.25 5706.48,12841.25 5706.48,13036.38 5634.94,13036.38 5634.94,12598.03 5706.48,12598.03 5706.48,12789.81 5926.57,12789.81 5926.57,12598.03 "/>
  <path id="5" fill="#1D3244" fill-rule="nonzero" d="M6990.49 12872l-60.27 -160.12c-4.87,-12.38 -9.84,-28.11 -14.91,-47.18 -2.24,9.53 -4.67,18.26 -7.31,26.28 -2.64,8.01 -5.07,15.12 -7.31,21.2l-60.27 159.82 150.07 0zm134.86 164.38l-55.1 0c-6.29,0 -11.36,-1.62 -15.22,-4.77 -3.86,-3.14 -6.8,-7 -8.83,-11.67l-36.53 -96.8 -188.73 0 -36.53 96.8c-1.62,4.06 -4.47,7.82 -8.52,11.27 -4.06,3.45 -9.14,5.17 -15.23,5.17l-55.09 0 173.81 -438.35 72.15 0 173.82 438.35z"/>
  <path id="6" fill="#1D3244" fill-rule="nonzero" d="M7642.84 12598.03l0 438.35 -62.71 0 0 -300.45c0,-4.87 0.2,-10.25 0.51,-16.03 0.3,-5.79 0.71,-11.57 1.32,-17.46l-140.94 260.27c-5.48,10.76 -13.9,16.14 -25.27,16.14l-10.05 0c-11.56,0 -19.98,-5.38 -25.26,-16.14l-143.07 -260.88c0.6,5.89 1.11,11.77 1.42,17.66 0.3,5.88 0.4,11.36 0.4,16.44l0 300.45 -62.71 0 0 -438.35 53.28 0c6.29,0 11.16,0.51 14.61,1.62 3.45,1.12 6.59,4.57 9.43,10.25l140.64 254.79c3.05,5.89 5.99,11.87 8.73,18.06 2.74,6.19 5.17,12.59 7.41,19.08 2.43,-6.49 5.07,-12.99 7.81,-19.38 2.74,-6.39 5.58,-12.48 8.62,-18.37l138.51 -254.18c2.84,-5.68 5.99,-9.13 9.44,-10.25 3.45,-1.11 8.32,-1.62 14.61,-1.62l53.27 0z"/>
  <path id="7" fill="#1D3244" fill-rule="nonzero" d="M7978.9 12872l-60.27 -160.12c-4.87,-12.38 -9.84,-28.11 -14.91,-47.18 -2.24,9.53 -4.67,18.26 -7.31,26.28 -2.64,8.01 -5.07,15.12 -7.31,21.2l-60.27 159.82 150.07 0zm134.86 164.38l-55.1 0c-6.29,0 -11.36,-1.62 -15.22,-4.77 -3.86,-3.14 -6.8,-7 -8.83,-11.67l-36.53 -96.8 -188.73 0 -36.53 96.8c-1.62,4.06 -4.47,7.82 -8.52,11.27 -4.06,3.45 -9.14,5.17 -15.23,5.17l-55.09 0 173.81 -438.35 72.15 0 173.82 438.35z"/>
  <path id="8" fill="#1D3244" fill-rule="nonzero" d="M8527.75 12598.03l0 438.35 -36.22 0c-5.48,0 -10.15,-1.01 -14.01,-2.94 -3.85,-1.93 -7.51,-5.08 -10.96,-9.54l-240.78 -309.28c0.6,5.88 1.11,11.67 1.42,17.45 0.3,5.79 0.4,11.16 0.4,16.03l0 288.28 -62.71 0 0 -438.35 37.14 0c3.05,0 5.68,0.1 7.82,0.41 2.13,0.3 4.05,0.91 5.88,1.72 1.83,0.81 3.55,2.03 5.18,3.65 1.62,1.63 3.34,3.66 5.17,6.09l241.09 309.59c-0.61,-6.29 -1.01,-12.48 -1.32,-18.57 -0.3,-6.09 -0.5,-11.77 -0.5,-17.05l0 -285.84 62.4 0z"/>
  <path id="9" fill="#1D3244" fill-rule="nonzero" d="M8864.12 12872l-60.27 -160.12c-4.87,-12.38 -9.84,-28.11 -14.91,-47.18 -2.24,9.53 -4.67,18.26 -7.31,26.28 -2.64,8.01 -5.07,15.12 -7.31,21.2l-60.27 159.82 150.07 0zm134.86 164.38l-55.1 0c-6.29,0 -11.36,-1.62 -15.22,-4.77 -3.86,-3.14 -6.8,-7 -8.83,-11.67l-36.53 -96.8 -188.73 0 -36.53 96.8c-1.62,4.06 -4.47,7.82 -8.52,11.27 -4.06,3.45 -9.14,5.17 -15.23,5.17l-55.09 0 173.81 -438.35 72.15 0 173.82 438.35z"/>
  <polygon id="10" fill="#1D3244" fill-rule="nonzero" points="9412.97,12598.03 9412.97,13036.38 9341.74,13036.38 9341.74,12841.25 9121.65,12841.25 9121.65,13036.38 9050.11,13036.38 9050.11,12598.03 9121.65,12598.03 9121.65,12789.81 9341.74,12789.81 9341.74,12598.03 "/>
  <polygon id="11" fill="#1D3244" fill-rule="nonzero" points="10475.37,12657.39 10338.69,12657.39 10338.69,13036.38 10267.77,13036.38 10267.77,12657.39 10130.78,12657.39 10130.78,12598.03 10475.37,12598.03 "/>
  <polygon id="12" fill="#1D3244" fill-rule="nonzero" points="10809.92,12978.85 10809.61,13036.38 10536.25,13036.38 10536.25,12598.03 10809.61,12598.03 10809.61,12655.56 10607.79,12655.56 10607.79,12787.68 10769.13,12787.68 10769.13,12843.38 10607.79,12843.38 10607.79,12978.85 "/>
  <path id="13" fill="#1D3244" fill-rule="nonzero" d="M11014.18 12808.07c16.23,0 30.44,-2.03 42.61,-5.98 12.18,-3.96 22.33,-9.44 30.45,-16.54 8.11,-7.11 14.2,-15.63 18.26,-25.47 4.06,-9.85 6.09,-20.7 6.09,-32.68 0,-23.94 -7.92,-42.21 -23.75,-54.79 -15.82,-12.58 -39.77,-18.87 -71.84,-18.87l-57.83 0 0 154.33 56.01 0zm206.39 228.31l-63.62 0c-12.59,0 -21.72,-4.87 -27.4,-14.61l-102.28 -147.64c-3.45,-5.07 -7.21,-8.73 -11.27,-10.96 -4.05,-2.23 -10.14,-3.35 -18.26,-3.35l-39.57 0 0 176.56 -71.24 0 0 -438.35 129.07 0c28.82,0 53.68,2.94 74.48,8.83 20.8,5.88 37.85,14.2 51.25,25.06 13.39,10.86 23.33,23.95 29.73,39.17 6.39,15.22 9.53,32.16 9.53,50.83 0,15.22 -2.23,29.43 -6.79,42.62 -4.57,13.19 -11.17,25.17 -19.79,35.92 -8.63,10.76 -19.28,20.09 -31.86,28.01 -12.58,7.91 -26.89,14.1 -42.92,18.57 8.72,5.27 16.23,12.68 22.52,22.22l118.42 167.12z"/>
  <path id="14" fill="#1D3244" fill-rule="nonzero" d="M11409.91 12821.47c15.83,0 29.83,-2.03 41.91,-6.09 12.07,-4.06 22.12,-9.84 30.13,-17.25 8.02,-7.41 14.01,-16.34 18.07,-26.89 4.05,-10.55 6.08,-22.32 6.08,-35.31 0,-12.79 -1.92,-24.25 -5.88,-34.4 -3.96,-10.15 -9.95,-18.77 -17.86,-25.88 -7.92,-7.1 -17.86,-12.58 -29.93,-16.33 -12.08,-3.76 -26.29,-5.58 -42.52,-5.58l-65.14 0 0 167.73 65.14 0zm0 -223.44c28.61,0 53.47,3.35 74.48,10.05 21,6.69 38.35,16.03 52.05,28.1 13.7,12.08 23.85,26.59 30.55,43.53 6.69,16.95 10.04,35.72 10.04,56.22 0,20.9 -3.55,39.98 -10.65,57.33 -7.11,17.35 -17.66,32.27 -31.66,44.75 -14,12.48 -31.36,22.22 -52.16,29.22 -20.8,7 -45.05,10.55 -72.65,10.55l-65.14 0 0 158.6 -71.24 0 0 -438.35 136.38 0z"/>
  <polygon id="15" fill="#1D3244" fill-rule="nonzero" points="11918.88,12978.85 11918.57,13036.38 11645.21,13036.38 11645.21,12598.03 11918.57,12598.03 11918.57,12655.56 11716.75,12655.56 11716.75,12787.68 11878.09,12787.68 11878.09,12843.38 11716.75,12843.38 11716.75,12978.85 "/>
  <path id="16" fill="#1D3244" fill-rule="nonzero" d="M12123.14 12808.07c16.23,0 30.44,-2.03 42.61,-5.98 12.18,-3.96 22.33,-9.44 30.45,-16.54 8.11,-7.11 14.2,-15.63 18.26,-25.47 4.06,-9.85 6.09,-20.7 6.09,-32.68 0,-23.94 -7.92,-42.21 -23.75,-54.79 -15.82,-12.58 -39.77,-18.87 -71.84,-18.87l-57.83 0 0 154.33 56.01 0zm206.39 228.31l-63.62 0c-12.59,0 -21.72,-4.87 -27.4,-14.61l-102.28 -147.64c-3.45,-5.07 -7.21,-8.73 -11.27,-10.96 -4.05,-2.23 -10.14,-3.35 -18.26,-3.35l-39.57 0 0 176.56 -71.24 0 0 -438.35 129.07 0c28.82,0 53.68,2.94 74.48,8.83 20.8,5.88 37.85,14.2 51.25,25.06 13.39,10.86 23.33,23.95 29.73,39.17 6.39,15.22 9.53,32.16 9.53,50.83 0,15.22 -2.23,29.43 -6.79,42.62 -4.57,13.19 -11.17,25.17 -19.79,35.92 -8.63,10.76 -19.28,20.09 -31.86,28.01 -12.58,7.91 -26.89,14.1 -42.92,18.57 8.72,5.27 16.23,12.68 22.52,22.22l118.42 167.12z"/>
  <path id="17" fill="#1D3244" fill-rule="nonzero" d="M12681.73 12938.66c3.86,0 7.21,1.53 10.05,4.57l28.31 30.75c-17.86,21.51 -39.78,38.05 -65.75,49.72 -25.98,11.67 -57.03,17.55 -93.15,17.55 -32.07,0 -60.99,-5.58 -86.86,-16.64 -25.88,-11.06 -48,-26.48 -66.26,-46.27 -18.27,-19.79 -32.27,-43.33 -42.11,-70.73 -9.84,-27.39 -14.82,-57.53 -14.82,-90.41 0,-32.87 5.28,-63.11 15.73,-90.61 10.45,-27.5 25.17,-51.14 44.14,-70.93 18.98,-19.78 41.71,-35.1 68.19,-46.06 26.48,-10.96 55.61,-16.44 87.47,-16.44 31.66,0 59.66,5.07 83.91,15.32 24.25,10.25 45.26,23.95 63.12,40.99l-23.44 33.19c-1.63,2.23 -3.55,4.16 -5.79,5.78 -2.23,1.62 -5.27,2.43 -9.13,2.43 -4.06,0 -8.62,-1.92 -13.8,-5.68 -5.17,-3.75 -11.77,-7.91 -19.79,-12.48 -8.01,-4.56 -18.06,-8.72 -30.13,-12.48 -12.08,-3.75 -27.2,-5.58 -45.26,-5.58 -20.9,0 -40.08,3.65 -57.53,10.96 -17.45,7.3 -32.47,17.96 -45.05,31.96 -12.59,14 -22.33,31.05 -29.33,51.14 -7,20.09 -10.55,42.92 -10.55,68.49 0,25.78 3.65,48.71 10.96,68.9 7.3,20.2 17.35,37.24 30.13,51.14 12.79,13.91 27.81,24.56 45.06,31.87 17.25,7.3 35.82,10.95 55.7,10.95 12.18,0 23.14,-0.71 32.78,-2.03 9.64,-1.31 18.47,-3.45 26.58,-6.39 8.12,-2.94 15.83,-6.59 23.04,-11.06 7.2,-4.46 14.3,-9.94 21.41,-16.44 4.06,-3.65 8.12,-5.48 12.17,-5.48z"/>
  <path id="18" fill="#1D3244" fill-rule="nonzero" d="M13013.84 12872l-60.27 -160.12c-4.87,-12.38 -9.84,-28.11 -14.91,-47.18 -2.24,9.53 -4.67,18.26 -7.31,26.28 -2.64,8.01 -5.07,15.12 -7.31,21.2l-60.27 159.82 150.07 0zm134.86 164.38l-55.1 0c-6.29,0 -11.36,-1.62 -15.22,-4.77 -3.86,-3.14 -6.8,-7 -8.83,-11.67l-36.53 -96.8 -188.73 0 -36.53 96.8c-1.62,4.06 -4.47,7.82 -8.52,11.27 -4.06,3.45 -9.14,5.17 -15.23,5.17l-55.09 0 173.81 -438.35 72.15 0 173.82 438.35z"/>
  <path id="19" fill="#1D3244" fill-rule="nonzero" d="M13332.87 12864.69l0 171.69 -70.93 0 0 -171.69 -160.12 -266.66 62.41 0c6.29,0 11.26,1.52 14.91,4.57 3.66,3.04 6.7,6.9 9.14,11.56l89.8 157.08c4.06,7.91 7.81,15.42 11.16,22.53 3.35,7.1 6.29,14.1 8.93,21 2.23,-7.1 4.97,-14.21 8.22,-21.21 3.24,-7 6.9,-14.41 10.96,-22.32l89.19 -157.08c2.03,-4.06 4.97,-7.81 8.83,-11.16 3.85,-3.35 8.82,-4.97 14.91,-4.97l62.71 0 -160.12 266.66z"/>
  <path id="20" fill="#1D3244" fill-rule="nonzero" d="M13731.03 12872l-60.27 -160.12c-4.87,-12.38 -9.84,-28.11 -14.91,-47.18 -2.24,9.53 -4.67,18.26 -7.31,26.28 -2.64,8.01 -5.07,15.12 -7.31,21.2l-60.27 159.82 150.07 0zm134.86 164.38l-55.1 0c-6.29,0 -11.36,-1.62 -15.22,-4.77 -3.86,-3.14 -6.8,-7 -8.83,-11.67l-36.53 -96.8 -188.73 0 -36.53 96.8c-1.62,4.06 -4.47,7.82 -8.52,11.27 -4.06,3.45 -9.14,5.17 -15.23,5.17l-55.09 0 173.81 -438.35 72.15 0 173.82 438.35z"/>
  <path id="21" fill="#1D3244" fill-rule="nonzero" d="M6255.03 12855.56c0,-17.05 3.25,-33.18 9.74,-48.3 6.5,-15.12 15.32,-28.31 26.49,-39.57 11.16,-11.27 24.25,-20.09 39.16,-26.59 14.92,-6.49 30.75,-9.74 47.59,-9.74 17.05,0 33.08,3.25 48.1,9.74 15.02,6.5 28.11,15.32 39.27,26.59 11.16,11.26 19.99,24.45 26.48,39.57 6.5,15.12 9.74,31.25 9.74,48.3 0,17.05 -3.24,32.98 -9.74,47.89 -6.49,14.92 -15.32,28.01 -26.48,39.17 -11.16,11.16 -24.25,19.99 -39.27,26.49 -15.02,6.49 -31.05,9.74 -48.1,9.74 -16.84,0 -32.67,-3.25 -47.59,-9.74 -14.91,-6.5 -28,-15.33 -39.16,-26.49 -11.17,-11.16 -19.99,-24.25 -26.49,-39.17 -6.49,-14.91 -9.74,-30.84 -9.74,-47.89z"/>
  <path id="22" fill="#1D3244" fill-rule="nonzero" d="M9670.2 12855.56c0,-17.05 3.25,-33.18 9.74,-48.3 6.5,-15.12 15.32,-28.31 26.49,-39.57 11.16,-11.27 24.25,-20.09 39.16,-26.59 14.92,-6.49 30.75,-9.74 47.59,-9.74 17.05,0 33.08,3.25 48.1,9.74 15.02,6.5 28.11,15.32 39.27,26.59 11.16,11.26 19.99,24.45 26.48,39.57 6.5,15.12 9.74,31.25 9.74,48.3 0,17.05 -3.24,32.98 -9.74,47.89 -6.49,14.92 -15.32,28.01 -26.48,39.17 -11.16,11.16 -24.25,19.99 -39.27,26.49 -15.02,6.49 -31.05,9.74 -48.1,9.74 -16.84,0 -32.67,-3.25 -47.59,-9.74 -14.91,-6.5 -28,-15.33 -39.16,-26.49 -11.17,-11.16 -19.99,-24.25 -26.49,-39.17 -6.49,-14.91 -9.74,-30.84 -9.74,-47.89z"/>
 </g>
</svg>
